<svg xmlns="http://www.w3.org/2000/svg" xmlns:xlink="http://www.w3.org/1999/xlink" id="Layer_1" x="0" y="0" enable-background="new 0 0 136.9 114.8" version="1.1" viewBox="0 0 136.9 114.8" xml:space="preserve"><path fill="none" stroke="#F29100" stroke-miterlimit="10" stroke-width="1.347" d="M130,114.8H6.9c-3.8,0-6.9-3.1-6.9-6.9V6.9	C0,3.1,3.1,0,6.9,0H130c3.8,0,6.9,3.1,6.9,6.9v101.1C136.9,111.7,133.9,114.8,130,114.8z"/><rect width="102.7" height="2.4" x="16.5" y="10.9" fill="none" stroke="#F29300" stroke-miterlimit="10" stroke-width="1.341"/><rect width="102.9" height="67.5" x="16.5" y="10.9" fill="none" stroke="#F29100" stroke-miterlimit="10" stroke-width="1.347"/><line x1="17.1" x2="17.1" y1="43.8" y2="44.5" fill="none" stroke="#F29300" stroke-linecap="round" stroke-miterlimit="10" stroke-width="1.5"/><line x1="18.8" x2="18.8" y1="43.6" y2="44.7" fill="none" stroke="#F29300" stroke-linecap="round" stroke-miterlimit="10" stroke-width="1.5"/><line x1="20.4" x2="20.4" y1="43.8" y2="44.5" fill="none" stroke="#F29300" stroke-linecap="round" stroke-miterlimit="10" stroke-width="1.5"/><line x1="22.1" x2="22.1" y1="43.6" y2="44.7" fill="none" stroke="#F29300" stroke-linecap="round" stroke-miterlimit="10" stroke-width="1.5"/><line x1="23.8" x2="23.8" y1="43.1" y2="45.2" fill="none" stroke="#F29300" stroke-linecap="round" stroke-miterlimit="10" stroke-width="1.5"/><line x1="25.4" x2="25.4" y1="42.3" y2="46" fill="none" stroke="#F29300" stroke-linecap="round" stroke-miterlimit="10" stroke-width="1.5"/><line x1="27.1" x2="27.1" y1="43.9" y2="44.4" fill="none" stroke="#F29300" stroke-linecap="round" stroke-miterlimit="10" stroke-width="1.5"/><line x1="28.8" x2="28.8" y1="43.3" y2="45" fill="none" stroke="#F29300" stroke-linecap="round" stroke-miterlimit="10" stroke-width="1.5"/><line x1="30.4" x2="30.4" y1="29.3" y2="59" fill="none" stroke="#F29300" stroke-linecap="round" stroke-miterlimit="10" stroke-width="1.5"/><line x1="32.1" x2="32.1" y1="40.9" y2="47.4" fill="none" stroke="#F29300" stroke-linecap="round" stroke-miterlimit="10" stroke-width="1.5"/><line x1="33.8" x2="33.8" y1="42.7" y2="45.6" fill="none" stroke="#F29300" stroke-linecap="round" stroke-miterlimit="10" stroke-width="1.5"/><line x1="35.4" x2="35.4" y1="36.6" y2="51.7" fill="none" stroke="#F29300" stroke-linecap="round" stroke-miterlimit="10" stroke-width="1.5"/><line x1="37.1" x2="37.1" y1="33.3" y2="55.1" fill="none" stroke="#F29300" stroke-linecap="round" stroke-miterlimit="10" stroke-width="1.5"/><line x1="38.8" x2="38.8" y1="42.6" y2="45.7" fill="none" stroke="#F29300" stroke-linecap="round" stroke-miterlimit="10" stroke-width="1.5"/><line x1="40.4" x2="40.4" y1="37.4" y2="50.9" fill="none" stroke="#F29300" stroke-linecap="round" stroke-miterlimit="10" stroke-width="1.5"/><line x1="42.1" x2="42.1" y1="27.4" y2="60.9" fill="none" stroke="#F29300" stroke-linecap="round" stroke-miterlimit="10" stroke-width="1.5"/><line x1="43.8" x2="43.8" y1="39.3" y2="49" fill="none" stroke="#F29300" stroke-linecap="round" stroke-miterlimit="10" stroke-width="1.5"/><line x1="45.4" x2="45.4" y1="41.1" y2="47.2" fill="none" stroke="#F29300" stroke-linecap="round" stroke-miterlimit="10" stroke-width="1.5"/><line x1="47.1" x2="47.1" y1="42.6" y2="45.7" fill="none" stroke="#F29300" stroke-linecap="round" stroke-miterlimit="10" stroke-width="1.5"/><line x1="48.8" x2="48.8" y1="36.2" y2="52.1" fill="none" stroke="#F29300" stroke-linecap="round" stroke-miterlimit="10" stroke-width="1.5"/><line x1="50.4" x2="50.4" y1="42.5" y2="45.9" fill="none" stroke="#F29300" stroke-linecap="round" stroke-miterlimit="10" stroke-width="1.5"/><line x1="52.1" x2="52.1" y1="39.3" y2="49" fill="none" stroke="#F29300" stroke-linecap="round" stroke-miterlimit="10" stroke-width="1.5"/><line x1="53.8" x2="53.8" y1="34.8" y2="53.5" fill="none" stroke="#F29300" stroke-linecap="round" stroke-miterlimit="10" stroke-width="1.5"/><line x1="55.4" x2="55.4" y1="42.2" y2="46.1" fill="none" stroke="#F29300" stroke-linecap="round" stroke-miterlimit="10" stroke-width="1.5"/><line x1="57.1" x2="57.1" y1="41" y2="47.3" fill="none" stroke="#F29300" stroke-linecap="round" stroke-miterlimit="10" stroke-width="1.5"/><line x1="58.8" x2="58.8" y1="35.4" y2="53" fill="none" stroke="#F29300" stroke-linecap="round" stroke-miterlimit="10" stroke-width="1.5"/><line x1="60.4" x2="60.4" y1="32.6" y2="55.8" fill="none" stroke="#F29300" stroke-linecap="round" stroke-miterlimit="10" stroke-width="1.5"/><line x1="62.1" x2="62.1" y1="37.4" y2="50.9" fill="none" stroke="#F29300" stroke-linecap="round" stroke-miterlimit="10" stroke-width="1.5"/><line x1="63.8" x2="63.8" y1="38.1" y2="50.2" fill="none" stroke="#F29300" stroke-linecap="round" stroke-miterlimit="10" stroke-width="1.5"/><line x1="65.4" x2="65.4" y1="42.2" y2="46.1" fill="none" stroke="#F29300" stroke-linecap="round" stroke-miterlimit="10" stroke-width="1.5"/><line x1="67.1" x2="67.1" y1="38.9" y2="49.4" fill="none" stroke="#F29300" stroke-linecap="round" stroke-miterlimit="10" stroke-width="1.5"/><line x1="68.8" x2="68.8" y1="43.6" y2="44.7" fill="none" stroke="#F29300" stroke-linecap="round" stroke-miterlimit="10" stroke-width="1.5"/><line x1="70.4" x2="70.4" y1="41.4" y2="47" fill="none" stroke="#F29300" stroke-linecap="round" stroke-miterlimit="10" stroke-width="1.5"/><line x1="72.1" x2="72.1" y1="39" y2="49.3" fill="none" stroke="#F29300" stroke-linecap="round" stroke-miterlimit="10" stroke-width="1.5"/><line x1="73.8" x2="73.8" y1="40.9" y2="47.5" fill="none" stroke="#F29300" stroke-linecap="round" stroke-miterlimit="10" stroke-width="1.5"/><line x1="75.4" x2="75.4" y1="40.6" y2="47.8" fill="none" stroke="#F29300" stroke-linecap="round" stroke-miterlimit="10" stroke-width="1.5"/><line x1="77.1" x2="77.1" y1="38.4" y2="49.9" fill="none" stroke="#F29300" stroke-linecap="round" stroke-miterlimit="10" stroke-width="1.5"/><line x1="78.8" x2="78.8" y1="42" y2="46.3" fill="none" stroke="#F29300" stroke-linecap="round" stroke-miterlimit="10" stroke-width="1.5"/><line x1="80.4" x2="80.4" y1="42.2" y2="46.1" fill="none" stroke="#F29300" stroke-linecap="round" stroke-miterlimit="10" stroke-width="1.5"/><line x1="82.1" x2="82.1" y1="43.6" y2="44.7" fill="none" stroke="#F29300" stroke-linecap="round" stroke-miterlimit="10" stroke-width="1.5"/><line x1="83.8" x2="83.8" y1="42.6" y2="45.7" fill="none" stroke="#F29300" stroke-linecap="round" stroke-miterlimit="10" stroke-width="1.5"/><line x1="85.4" x2="85.4" y1="43.3" y2="45" fill="none" stroke="#F29300" stroke-linecap="round" stroke-miterlimit="10" stroke-width="1.5"/><line x1="87.1" x2="87.1" y1="39.9" y2="48.4" fill="none" stroke="#F29300" stroke-linecap="round" stroke-miterlimit="10" stroke-width="1.5"/><line x1="88.8" x2="88.8" y1="42.9" y2="45.4" fill="none" stroke="#F29300" stroke-linecap="round" stroke-miterlimit="10" stroke-width="1.5"/><line x1="90.4" x2="90.4" y1="43.6" y2="44.7" fill="none" stroke="#F29300" stroke-linecap="round" stroke-miterlimit="10" stroke-width="1.5"/><line x1="92.1" x2="92.1" y1="43.6" y2="44.7" fill="none" stroke="#F29300" stroke-linecap="round" stroke-miterlimit="10" stroke-width="1.5"/><line x1="93.8" x2="93.8" y1="42.7" y2="45.6" fill="none" stroke="#F29300" stroke-linecap="round" stroke-miterlimit="10" stroke-width="1.5"/><line x1="95.4" x2="95.4" y1="41.1" y2="47.2" fill="none" stroke="#F29300" stroke-linecap="round" stroke-miterlimit="10" stroke-width="1.5"/><line x1="97.1" x2="97.1" y1="42.7" y2="45.6" fill="none" stroke="#F29300" stroke-linecap="round" stroke-miterlimit="10" stroke-width="1.5"/><line x1="98.8" x2="98.8" y1="43.6" y2="44.7" fill="none" stroke="#F29300" stroke-linecap="round" stroke-miterlimit="10" stroke-width="1.5"/><line x1="100.4" x2="100.4" y1="43.1" y2="45.2" fill="none" stroke="#F29300" stroke-linecap="round" stroke-miterlimit="10" stroke-width="1.5"/><line x1="102.1" x2="102.1" y1="43.6" y2="44.7" fill="none" stroke="#F29300" stroke-linecap="round" stroke-miterlimit="10" stroke-width="1.5"/><line x1="103.8" x2="103.8" y1="42" y2="46.3" fill="none" stroke="#F29300" stroke-linecap="round" stroke-miterlimit="10" stroke-width="1.5"/><line x1="105.4" x2="105.4" y1="43.6" y2="44.7" fill="none" stroke="#F29300" stroke-linecap="round" stroke-miterlimit="10" stroke-width="1.5"/><line x1="107.1" x2="107.1" y1="43.8" y2="44.5" fill="none" stroke="#F29300" stroke-linecap="round" stroke-miterlimit="10" stroke-width="1.5"/><line x1="108.8" x2="108.8" y1="43.6" y2="44.7" fill="none" stroke="#F29300" stroke-linecap="round" stroke-miterlimit="10" stroke-width="1.5"/><line x1="110.4" x2="110.4" y1="43.6" y2="44.7" fill="none" stroke="#F29300" stroke-linecap="round" stroke-miterlimit="10" stroke-width="1.5"/><line x1="112.1" x2="112.1" y1="42.6" y2="45.7" fill="none" stroke="#F29300" stroke-linecap="round" stroke-miterlimit="10" stroke-width="1.5"/><line x1="113.8" x2="113.8" y1="43.1" y2="45.2" fill="none" stroke="#F29300" stroke-linecap="round" stroke-miterlimit="10" stroke-width="1.5"/><line x1="115.4" x2="115.4" y1="43.6" y2="44.7" fill="none" stroke="#F29300" stroke-linecap="round" stroke-miterlimit="10" stroke-width="1.5"/><line x1="117.1" x2="117.1" y1="43.8" y2="44.5" fill="none" stroke="#F29300" stroke-linecap="round" stroke-miterlimit="10" stroke-width="1.5"/><line x1="118.8" x2="118.8" y1="43.8" y2="44.5" fill="none" stroke="#F29300" stroke-linecap="round" stroke-miterlimit="10" stroke-width="1.5"/></svg>