<svg xmlns="http://www.w3.org/2000/svg" xmlns:xlink="http://www.w3.org/1999/xlink" id="Layer_1" x="0" y="0" enable-background="new 0 0 136.9 114.8" version="1.1" viewBox="0 0 136.9 114.8" xml:space="preserve"><g id="Layer_1_23_"><rect width="103.6" height="67.5" x="16.3" y="10.9" fill="none" stroke="#F29100" stroke-miterlimit="10" stroke-width="1.347"/></g><rect width="103.6" height="2.4" x="16.3" y="10.9" fill="none" stroke="#F29300" stroke-miterlimit="10" stroke-width="1.347"/><path fill="none" stroke="#F29100" stroke-miterlimit="10" stroke-width="1.347" d="M130,114.8H6.9c-3.8,0-6.9-3.1-6.9-6.9V6.9	C0,3.1,3.1,0,6.9,0H130c3.8,0,6.9,3.1,6.9,6.9v101.1C136.9,111.7,133.9,114.8,130,114.8z"/><g id="Layer_1_8_"><rect width="64.4" height="42.3" x="35.7" y="23.6" fill="none" stroke="#F29100" stroke-miterlimit="10" stroke-width="1.347"/></g><line x1="36" x2="36" y1="44.1" y2="44.6" fill="none" stroke="#F29300" stroke-linecap="round" stroke-miterlimit="10" stroke-width="1.5"/><line x1="37.1" x2="37.1" y1="44" y2="44.7" fill="none" stroke="#F29300" stroke-linecap="round" stroke-miterlimit="10" stroke-width="1.5"/><line x1="38.1" x2="38.1" y1="44.1" y2="44.6" fill="none" stroke="#F29300" stroke-linecap="round" stroke-miterlimit="10" stroke-width="1.5"/><line x1="39.2" x2="39.2" y1="44" y2="44.7" fill="none" stroke="#F29300" stroke-linecap="round" stroke-miterlimit="10" stroke-width="1.5"/><line x1="40.2" x2="40.2" y1="43.7" y2="45" fill="none" stroke="#F29300" stroke-linecap="round" stroke-miterlimit="10" stroke-width="1.5"/><line x1="41.3" x2="41.3" y1="43.2" y2="45.5" fill="none" stroke="#F29300" stroke-linecap="round" stroke-miterlimit="10" stroke-width="1.5"/><line x1="42.3" x2="42.3" y1="44.2" y2="44.5" fill="none" stroke="#F29300" stroke-linecap="round" stroke-miterlimit="10" stroke-width="1.5"/><line x1="43.3" x2="43.3" y1="43.8" y2="44.9" fill="none" stroke="#F29300" stroke-linecap="round" stroke-miterlimit="10" stroke-width="1.5"/><line x1="44.4" x2="44.4" y1="35.1" y2="53.6" fill="none" stroke="#F29300" stroke-linecap="round" stroke-miterlimit="10" stroke-width="1.5"/><line x1="45.4" x2="45.4" y1="42.3" y2="46.4" fill="none" stroke="#F29300" stroke-linecap="round" stroke-miterlimit="10" stroke-width="1.5"/><line x1="46.5" x2="46.5" y1="43.4" y2="45.3" fill="none" stroke="#F29300" stroke-linecap="round" stroke-miterlimit="10" stroke-width="1.5"/><line x1="47.5" x2="47.5" y1="39.6" y2="49.1" fill="none" stroke="#F29300" stroke-linecap="round" stroke-miterlimit="10" stroke-width="1.5"/><line x1="48.6" x2="48.6" y1="37.5" y2="51.2" fill="none" stroke="#F29300" stroke-linecap="round" stroke-miterlimit="10" stroke-width="1.5"/><line x1="49.6" x2="49.6" y1="43.4" y2="45.3" fill="none" stroke="#F29300" stroke-linecap="round" stroke-miterlimit="10" stroke-width="1.5"/><line x1="50.6" x2="50.6" y1="40.1" y2="48.6" fill="none" stroke="#F29300" stroke-linecap="round" stroke-miterlimit="10" stroke-width="1.5"/><line x1="51.7" x2="51.7" y1="33.9" y2="54.9" fill="none" stroke="#F29300" stroke-linecap="round" stroke-miterlimit="10" stroke-width="1.5"/><line x1="52.7" x2="52.7" y1="41.3" y2="47.4" fill="none" stroke="#F29300" stroke-linecap="round" stroke-miterlimit="10" stroke-width="1.5"/><line x1="53.8" x2="53.8" y1="42.5" y2="46.3" fill="none" stroke="#F29300" stroke-linecap="round" stroke-miterlimit="10" stroke-width="1.5"/><line x1="54.8" x2="54.8" y1="43.4" y2="45.3" fill="none" stroke="#F29300" stroke-linecap="round" stroke-miterlimit="10" stroke-width="1.5"/><line x1="55.9" x2="55.9" y1="39.4" y2="49.3" fill="none" stroke="#F29300" stroke-linecap="round" stroke-miterlimit="10" stroke-width="1.5"/><line x1="56.9" x2="56.9" y1="43.3" y2="45.4" fill="none" stroke="#F29300" stroke-linecap="round" stroke-miterlimit="10" stroke-width="1.5"/><line x1="57.9" x2="57.9" y1="41.3" y2="47.4" fill="none" stroke="#F29300" stroke-linecap="round" stroke-miterlimit="10" stroke-width="1.5"/><line x1="59" x2="59" y1="38.5" y2="50.2" fill="none" stroke="#F29300" stroke-linecap="round" stroke-miterlimit="10" stroke-width="1.5"/><line x1="60" x2="60" y1="43.1" y2="45.6" fill="none" stroke="#F29300" stroke-linecap="round" stroke-miterlimit="10" stroke-width="1.5"/><line x1="61.1" x2="61.1" y1="42.4" y2="46.3" fill="none" stroke="#F29300" stroke-linecap="round" stroke-miterlimit="10" stroke-width="1.5"/><line x1="62.1" x2="62.1" y1="38.8" y2="49.9" fill="none" stroke="#F29300" stroke-linecap="round" stroke-miterlimit="10" stroke-width="1.5"/><line x1="63.2" x2="63.2" y1="37.1" y2="51.6" fill="none" stroke="#F29300" stroke-linecap="round" stroke-miterlimit="10" stroke-width="1.5"/><line x1="64.2" x2="64.2" y1="40.1" y2="48.6" fill="none" stroke="#F29300" stroke-linecap="round" stroke-miterlimit="10" stroke-width="1.5"/><line x1="65.2" x2="65.2" y1="40.6" y2="48.1" fill="none" stroke="#F29300" stroke-linecap="round" stroke-miterlimit="10" stroke-width="1.5"/><line x1="66.3" x2="66.3" y1="43.1" y2="45.6" fill="none" stroke="#F29300" stroke-linecap="round" stroke-miterlimit="10" stroke-width="1.5"/><line x1="67.3" x2="67.3" y1="41.1" y2="47.6" fill="none" stroke="#F29300" stroke-linecap="round" stroke-miterlimit="10" stroke-width="1.5"/><line x1="68.4" x2="68.4" y1="44" y2="44.7" fill="none" stroke="#F29300" stroke-linecap="round" stroke-miterlimit="10" stroke-width="1.5"/><line x1="69.4" x2="69.4" y1="42.6" y2="46.1" fill="none" stroke="#F29300" stroke-linecap="round" stroke-miterlimit="10" stroke-width="1.5"/><line x1="70.5" x2="70.5" y1="41.1" y2="47.6" fill="none" stroke="#F29300" stroke-linecap="round" stroke-miterlimit="10" stroke-width="1.5"/><line x1="71.5" x2="71.5" y1="42.3" y2="46.4" fill="none" stroke="#F29300" stroke-linecap="round" stroke-miterlimit="10" stroke-width="1.5"/><line x1="72.5" x2="72.5" y1="42.1" y2="46.6" fill="none" stroke="#F29300" stroke-linecap="round" stroke-miterlimit="10" stroke-width="1.5"/><line x1="73.6" x2="73.6" y1="40.8" y2="47.9" fill="none" stroke="#F29300" stroke-linecap="round" stroke-miterlimit="10" stroke-width="1.5"/><line x1="74.6" x2="74.6" y1="43" y2="45.7" fill="none" stroke="#F29300" stroke-linecap="round" stroke-miterlimit="10" stroke-width="1.5"/><line x1="75.7" x2="75.7" y1="43.1" y2="45.6" fill="none" stroke="#F29300" stroke-linecap="round" stroke-miterlimit="10" stroke-width="1.5"/><line x1="76.7" x2="76.7" y1="44" y2="44.7" fill="none" stroke="#F29300" stroke-linecap="round" stroke-miterlimit="10" stroke-width="1.5"/><line x1="77.8" x2="77.8" y1="43.4" y2="45.3" fill="none" stroke="#F29300" stroke-linecap="round" stroke-miterlimit="10" stroke-width="1.5"/><line x1="78.8" x2="78.8" y1="43.8" y2="44.9" fill="none" stroke="#F29300" stroke-linecap="round" stroke-miterlimit="10" stroke-width="1.5"/><line x1="79.9" x2="79.9" y1="41.7" y2="47" fill="none" stroke="#F29300" stroke-linecap="round" stroke-miterlimit="10" stroke-width="1.5"/><line x1="80.9" x2="80.9" y1="43.6" y2="45.2" fill="none" stroke="#F29300" stroke-linecap="round" stroke-miterlimit="10" stroke-width="1.5"/><line x1="81.9" x2="81.9" y1="44" y2="44.7" fill="none" stroke="#F29300" stroke-linecap="round" stroke-miterlimit="10" stroke-width="1.5"/><line x1="83" x2="83" y1="44" y2="44.7" fill="none" stroke="#F29300" stroke-linecap="round" stroke-miterlimit="10" stroke-width="1.5"/><line x1="84" x2="84" y1="43.4" y2="45.3" fill="none" stroke="#F29300" stroke-linecap="round" stroke-miterlimit="10" stroke-width="1.5"/><line x1="85.1" x2="85.1" y1="42.5" y2="46.3" fill="none" stroke="#F29300" stroke-linecap="round" stroke-miterlimit="10" stroke-width="1.5"/><line x1="86.1" x2="86.1" y1="43.5" y2="45.2" fill="none" stroke="#F29300" stroke-linecap="round" stroke-miterlimit="10" stroke-width="1.5"/><line x1="87.2" x2="87.2" y1="44" y2="44.7" fill="none" stroke="#F29300" stroke-linecap="round" stroke-miterlimit="10" stroke-width="1.5"/><line x1="88.2" x2="88.2" y1="43.7" y2="45" fill="none" stroke="#F29300" stroke-linecap="round" stroke-miterlimit="10" stroke-width="1.5"/><line x1="89.2" x2="89.2" y1="44" y2="44.7" fill="none" stroke="#F29300" stroke-linecap="round" stroke-miterlimit="10" stroke-width="1.5"/><line x1="90.3" x2="90.3" y1="43" y2="45.7" fill="none" stroke="#F29300" stroke-linecap="round" stroke-miterlimit="10" stroke-width="1.5"/><line x1="91.3" x2="91.3" y1="44" y2="44.7" fill="none" stroke="#F29300" stroke-linecap="round" stroke-miterlimit="10" stroke-width="1.5"/><line x1="92.4" x2="92.4" y1="44.2" y2="44.6" fill="none" stroke="#F29300" stroke-linecap="round" stroke-miterlimit="10" stroke-width="1.5"/><line x1="93.4" x2="93.4" y1="44" y2="44.7" fill="none" stroke="#F29300" stroke-linecap="round" stroke-miterlimit="10" stroke-width="1.5"/><line x1="94.5" x2="94.5" y1="44" y2="44.7" fill="none" stroke="#F29300" stroke-linecap="round" stroke-miterlimit="10" stroke-width="1.5"/><line x1="95.5" x2="95.5" y1="43.4" y2="45.3" fill="none" stroke="#F29300" stroke-linecap="round" stroke-miterlimit="10" stroke-width="1.5"/><line x1="96.5" x2="96.5" y1="43.7" y2="45" fill="none" stroke="#F29300" stroke-linecap="round" stroke-miterlimit="10" stroke-width="1.5"/><line x1="97.6" x2="97.6" y1="44" y2="44.7" fill="none" stroke="#F29300" stroke-linecap="round" stroke-miterlimit="10" stroke-width="1.5"/><line x1="98.6" x2="98.6" y1="44.2" y2="44.6" fill="none" stroke="#F29300" stroke-linecap="round" stroke-miterlimit="10" stroke-width="1.5"/><line x1="99.7" x2="99.7" y1="44.2" y2="44.6" fill="none" stroke="#F29300" stroke-linecap="round" stroke-miterlimit="10" stroke-width="1.5"/><g><g><line x1="16.3" x2="35.8" y1="35.1" y2="35.1" fill="none" stroke="#F29300" stroke-miterlimit="10" stroke-width="1.5"/><g><circle cx="35.7" cy="35.1" r="1.7" fill="#F29300"/></g></g></g><g><g><line x1="16.3" x2="35.8" y1="54.4" y2="54.4" fill="none" stroke="#F29300" stroke-miterlimit="10" stroke-width="1.5"/><g><circle cx="35.7" cy="54.4" r="1.7" fill="#F29300"/></g></g></g><g><g><line x1="119.7" x2="100.2" y1="54.4" y2="54.4" fill="none" stroke="#F29300" stroke-miterlimit="10" stroke-width="1.5"/><g><circle cx="100.3" cy="54.4" r="1.7" fill="#F29300"/></g></g></g><g><g><line x1="119.7" x2="100.2" y1="35.1" y2="35.1" fill="none" stroke="#F29300" stroke-miterlimit="10" stroke-width="1.5"/><g><circle cx="100.3" cy="35.1" r="1.7" fill="#F29300"/></g></g></g></svg>